<svg viewBox="current" xmlns="http://www.w3.org/2000/svg">
<symbol id="btn-send-cancel">
  <path  d="M15.225 19.475L16.975 17.725L18.725 19.475L19.475 18.725L17.75 17L19.5 15.25L18.75 14.5L17 16.25L15.25 14.5L14.5 15.25L16.25 17L14.5 18.75L15.225 19.475ZM3 20V4L17.3 10H17C16.4167 10 15.8667 10.0667 15.35 10.2C14.8333 10.3333 14.3333 10.5167 13.85 10.75L5 7V10.5L11 12L5 13.5V17L10.4 14.7C10.2667 15.0833 10.1667 15.4625 10.1 15.8375C10.0333 16.2125 10 16.6 10 17V17.05L3 20ZM17 22C15.6167 22 14.4375 21.5125 13.4625 20.5375C12.4875 19.5625 12 18.3833 12 17C12 15.6167 12.4875 14.4375 13.4625 13.4625C14.4375 12.4875 15.6167 12 17 12C18.3833 12 19.5625 12.4875 20.5375 13.4625C21.5125 14.4375 22 15.6167 22 17C22 18.3833 21.5125 19.5625 20.5375 20.5375C19.5625 21.5125 18.3833 22 17 22Z" fill="current"/>
</symbol>
<symbol id="btn-send">
  <path d="M3 20V4L22 12L3 20ZM5 17L16.85 12L5 7V10.5L11 12L5 13.5V17Z" fill="current"/>
</symbol>
<symbol id="btn-edit">
  <path d="M5 19H6.4L15.025 10.375L13.625 8.975L5 17.6V19ZM19.3 8.925L15.05 4.725L16.45 3.325C16.8333 2.94167 17.3042 2.75 17.8625 2.75C18.4208 2.75 18.8917 2.94167 19.275 3.325L20.675 4.725C21.0583 5.10833 21.2583 5.57083 21.275 6.1125C21.2917 6.65417 21.1083 7.11667 20.725 7.5L19.3 8.925ZM17.85 10.4L7.25 21H3V16.75L13.6 6.15L17.85 10.4Z" fill="current"/>
</symbol>
<symbol id="btn-delete">
  <path d="M7 21C6.45 21 5.97917 20.8042 5.5875 20.4125C5.19583 20.0208 5 19.55 5 19V6H4V4H9V3H15V4H20V6H19V19C19 19.55 18.8042 20.0208 18.4125 20.4125C18.0208 20.8042 17.55 21 17 21H7ZM17 6H7V19H17V6ZM9 17H11V8H9V17ZM13 17H15V8H13V17Z" fill="current" />
</symbol>
<symbol id="btn-uparrow">
  <path d="M5.46804 16.896C4.8364 17.5105 3.83027 17.5105 3.19862 16.896V16.896C2.54202 16.2571 2.54202 15.2024 3.19862 14.5635L10.6053 7.35702C11.3817 6.60162 12.6183 6.60162 13.3947 7.35702L20.8014 14.5635C21.458 15.2024 21.458 16.2571 20.8014 16.896V16.896C20.1697 17.5105 19.1636 17.5105 18.532 16.896L13.3947 11.8976C12.6183 11.1422 11.3817 11.1422 10.6053 11.8976L5.46804 16.896Z" fill="current"/>
</symbol>
<symbol id="btn-close">
  <path d="M11.3714 22C10.9296 22 10.5714 21.6418 10.5714 21.2V14.2286C10.5714 13.7867 10.2133 13.4286 9.77143 13.4286H2.8C2.35817 13.4286 2 13.0704 2 12.6286V11.3714C2 10.9296 2.35817 10.5714 2.8 10.5714H9.77143C10.2133 10.5714 10.5714 10.2133 10.5714 9.77143V2.8C10.5714 2.35817 10.9296 2 11.3714 2H12.6286C13.0704 2 13.4286 2.35817 13.4286 2.8V9.77143C13.4286 10.2133 13.7867 10.5714 14.2286 10.5714H21.2C21.6418 10.5714 22 10.9296 22 11.3714V12.6286C22 13.0704 21.6418 13.4286 21.2 13.4286H14.2286C13.7867 13.4286 13.4286 13.7867 13.4286 14.2286V21.2C13.4286 21.6418 13.0704 22 12.6286 22H11.3714Z" fill="current"/>
</symbol>
</svg>
